<?xml version="1.0" standalone="no"?>
<!DOCTYPE svg PUBLIC "-//W3C//DTD SVG 20010904//EN"
 "http://www.w3.org/TR/2001/REC-SVG-20010904/DTD/svg10.dtd">
<svg version="1.0" xmlns="http://www.w3.org/2000/svg"
 width="1200.000000pt" height="1200.000000pt" viewBox="0 0 1200.000000 1200.000000"
 preserveAspectRatio="xMidYMid meet">
<metadata>
Created by potrace 1.11, written by Peter Selinger 2001-2013
</metadata>
<g transform="translate(0.000000,1200.000000) scale(0.100000,-0.100000)"
fill="#000000" stroke="none">
<path d="M1920 11437 l0 -393 -72 -19 c-240 -61 -588 -204 -789 -324 -19 -11
-47 -28 -64 -37 -46 -26 -201 -130 -282 -190 -198 -147 -430 -375 -583 -574
-45 -58 -87 -113 -95 -122 -7 -9 -18 -25 -24 -37 -8 -14 -11 -802 -11 -2694
l0 -2673 95 -119 c273 -342 586 -597 992 -807 213 -110 506 -217 753 -277 l75
-17 3 -1017 2 -1017 569 0 569 0 37 -77 c160 -338 421 -628 745 -828 103 -63
256 -138 378 -185 l77 -30 1132 0 1133 0 67 25 c37 14 109 44 160 66 l93 41
93 -26 c102 -28 211 -51 302 -62 33 -5 62 -9 65 -9 3 -1 46 -5 95 -9 50 -5 99
-11 110 -14 32 -9 3115 -14 3116 -5 5 59 0 1105 -5 1111 -4 4 -160 8 -347 8
-186 1 -345 2 -353 3 -11 1 -13 23 -10 109 9 243 23 425 50 617 3 22 7 49 9
60 1 11 5 34 8 50 4 17 9 45 12 63 12 74 16 98 20 112 2 8 7 29 10 47 9 57 63
255 94 350 55 169 136 350 224 507 31 53 147 219 198 282 271 334 657 574
1133 704 43 12 91 24 105 26 14 3 34 7 43 10 9 3 27 7 40 10 13 2 37 7 53 10
17 4 36 7 43 7 9 0 12 144 12 683 l0 682 -107 -23 c-584 -127 -1016 -390
-1433 -870 -170 -196 -361 -487 -515 -782 -43 -83 -74 -116 -76 -80 0 6 0 374
-1 817 l0 805 -322 0 -321 0 -3 653 -2 652 720 0 720 0 1 33 c4 188 0 1079 -5
1085 -4 4 -350 7 -769 8 -419 1 -764 2 -767 3 -3 0 -5 523 -4 1161 l1 1160
-636 -2 -636 -3 0 -1158 c0 -636 -2 -1157 -5 -1158 -7 -1 -358 -1 -400 0 l-35
1 1 1160 2 1160 -638 0 -638 0 0 -460 c0 -254 -2 -464 -6 -467 -3 -4 -6 1 -6
10 0 31 -81 240 -141 364 -323 669 -889 1161 -1619 1406 -120 41 -321 98 -390
111 -14 3 -61 12 -104 21 -94 18 -118 23 -171 30 -22 3 -51 8 -65 10 -14 3
-47 8 -75 11 -27 3 -61 7 -75 9 -14 2 -70 7 -125 11 -55 4 -107 8 -115 10 -8
1 -22 3 -30 3 -13 1 -15 42 -15 329 1 180 -1 333 -3 340 -3 9 -140 12 -638 12
l-634 0 0 -393z m1390 -1422 c247 -20 548 -106 740 -212 234 -129 429 -310
583 -541 60 -90 133 -226 167 -312 12 -30 27 -68 35 -85 7 -16 23 -64 35 -105
12 -41 26 -86 30 -100 5 -14 12 -41 16 -60 4 -19 8 -37 9 -40 1 -3 5 -21 9
-40 l7 -35 587 1 c323 0 592 -1 597 -3 12 -4 12 -709 1 -721 -4 -4 -296 -8
-649 -8 -353 -1 -647 -2 -654 -3 -9 -1 -12 -134 -12 -561 l1 -560 659 0 659 0
1 -32 c1 -41 1 -472 0 -513 l-1 -30 -561 0 c-308 0 -563 -3 -565 -6 -2 -4 -6
-24 -9 -45 -13 -84 -37 -212 -52 -269 -8 -33 -17 -69 -19 -79 -17 -86 -110
-331 -176 -461 -127 -251 -303 -468 -512 -629 -73 -56 -147 -106 -157 -106 -2
0 -4 737 -3 1638 0 900 -1 1642 -3 1647 -2 7 -153 10 -434 10 -278 0 -433 3
-438 10 -10 13 -8 2237 2 2252 4 7 13 10 20 8 7 -2 46 -6 87 -10z m-1390
-2930 c0 -1685 -4 -2715 -9 -2715 -28 0 -222 120 -346 213 -148 112 -393 378
-461 502 -6 11 -31 52 -54 90 -58 94 -170 327 -215 448 -61 167 -129 423 -160
607 -3 19 -10 60 -15 90 -5 30 -12 79 -15 109 -4 30 -8 62 -10 71 -3 16 -11
112 -21 245 -4 66 -4 488 1 540 2 22 6 89 10 148 4 60 8 118 10 129 3 11 7 46
10 77 8 69 47 320 60 381 2 14 10 50 16 80 5 30 22 98 36 150 14 52 27 102 28
110 2 8 4 15 5 15 1 0 3 7 5 15 9 48 91 261 140 366 19 41 35 76 35 79 0 2 36
66 79 140 152 259 306 435 557 633 47 38 291 189 307 191 4 1 7 -1221 7 -2714z
m5921 -472 c5 -105 0 -4058 -5 -4085 -27 -147 -152 -442 -263 -622 -50 -81
-156 -226 -161 -221 -3 3 -5 4872 -3 4933 1 9 51 12 216 12 198 0 215 -1 216
-17z m-1706 -3295 c2 -1063 5 -1951 8 -1972 3 -22 8 -67 11 -100 4 -34 8 -72
11 -86 2 -14 6 -41 9 -60 3 -19 8 -52 11 -72 7 -42 5 -43 -90 -54 -33 -3 -69
-8 -80 -10 -34 -7 -255 -18 -360 -18 -579 1 -1002 188 -1290 572 -115 154
-216 387 -250 577 -15 80 -25 149 -31 205 -8 76 -12 887 -4 899 3 5 66 29 140
54 227 76 401 155 585 265 81 49 220 142 263 177 197 158 364 325 512 511 84
105 211 300 276 424 22 41 45 84 52 95 16 28 92 193 92 200 0 3 9 24 19 48 28
61 66 163 87 229 10 32 19 56 21 54 3 -2 6 -874 8 -1938z"/>
</g>
</svg>
